<svg width="100" height="100" viewBox="0 0 100 100" fill="none" xmlns="http://www.w3.org/2000/svg">
<rect width="100" height="100" rx="50" fill="#14B8A6"/>
<path d="M52.6364 38.0909V45.3636H31.0909V38.0909H52.6364ZM36.0227 73V35.5682C36.0227 33.0379 36.5152 30.9394 37.5 29.2727C38.5 27.6061 39.8636 26.3561 41.5909 25.5227C43.3182 24.6894 45.2803 24.2727 47.4773 24.2727C48.9621 24.2727 50.3182 24.3864 51.5455 24.6136C52.7879 24.8409 53.7121 25.0455 54.3182 25.2273L52.5909 32.5C52.2121 32.3788 51.7424 32.2651 51.1818 32.1591C50.6364 32.053 50.0758 32 49.5 32C48.0758 32 47.0833 32.3333 46.5227 33C45.9621 33.6515 45.6818 34.5682 45.6818 35.75V73H36.0227ZM60.5852 73.5909C59.0852 73.5909 57.7973 73.0606 56.7216 72C55.661 70.9242 55.1307 69.6364 55.1307 68.1364C55.1307 66.6515 55.661 65.3788 56.7216 64.3182C57.7973 63.2576 59.0852 62.7273 60.5852 62.7273C62.0398 62.7273 63.3125 63.2576 64.4034 64.3182C65.4943 65.3788 66.0398 66.6515 66.0398 68.1364C66.0398 69.1364 65.7822 70.053 65.267 70.8864C64.767 71.7045 64.108 72.3636 63.2898 72.8636C62.4716 73.3485 61.5701 73.5909 60.5852 73.5909Z" fill="white"/>
</svg>
